<svg width="6" height="11" viewBox="0 0 6 11" fill="none" xmlns="http://www.w3.org/2000/svg">
<path d="M5.04295 10.4908C5.14724 10.5951 5.2822 10.6565 5.44172 10.6565C5.76075 10.6565 6 10.4172 6 10.0982C6 9.94482 5.93867 9.80371 5.84048 9.69942L1.37424 5.33131L5.84048 0.963197C5.93867 0.858912 6 0.711672 6 0.564406C6 0.2454 5.76075 0 5.44172 0C5.2822 0 5.14724 0.0613565 5.04295 0.165641L0.184043 4.92027C0.0674817 5.01843 0 5.17179 0 5.33131C0 5.48467 0.0674817 5.62579 0.184043 5.74235L5.04295 10.4908Z" fill="white"/>
</svg>
